<?xml version="1.0" encoding="utf-8"?>
<!-- Generator: Adobe Illustrator 24.0.0, SVG Export Plug-In . SVG Version: 6.00 Build 0)  -->
<svg version="1.1" xmlns="http://www.w3.org/2000/svg" xmlns:xlink="http://www.w3.org/1999/xlink" x="0px" y="0px"
	 viewBox="0 0 1024 1024" style="enable-background:new 0 0 1024 1024;" xml:space="preserve">
<style type="text/css">
	.st0{fill:#34495E;}
	.st1{fill:#2C3E50;}
	.st2{opacity:0.16;fill:url(#SVGID_1_);}
</style>
<g id="图层_3">
	<rect x="55" y="895" class="st0" width="914" height="50"/>
	<rect x="490" y="818" class="st0" width="44" height="108"/>
	<rect x="362" y="880" class="st0" width="300" height="84"/>
	<path class="st1" d="M55,936.06V945h307v19h300v-19h307v-20.36C838.7,941.34,137.8,936.67,55,936.06z"/>
</g>
<g id="图层_1">
	<g id="图层_4">
	</g>
	<path class="st0" d="M894,83.05H130c-49.71,0-90,40.29-90,90v525c0,49.71,40.29,90,90,90h764c49.71,0,90-40.29,90-90v-525
		C984,123.35,943.71,83.05,894,83.05z M145.16,478.17l-26.37-26.86L251.85,341.7L118.79,231.35l26.37-27.1l164.06,136.96
		L145.16,478.17z M619.48,477.55h-274.9v-35.16h274.9V477.55z"/>
	<path class="st1" d="M917,751c-29,0-770,0-807,0s-70-53-70-53c0,49.71,40.29,90,90,90h764c49.71,0,90-40.29,90-90v-5.85
		C984,714.3,946,751,917,751z"/>
	<g id="图层_5">
		<linearGradient id="SVGID_1_" gradientUnits="userSpaceOnUse" x1="481.958" y1="317.9585" x2="513.6176" y2="734.6393">
			<stop  offset="0.0129" style="stop-color:#000000"/>
			<stop  offset="0.4653" style="stop-color:#131B22;stop-opacity:0.6792"/>
			<stop  offset="1" style="stop-color:#2C3E50;stop-opacity:0.3"/>
		</linearGradient>
		<polygon class="st2" points="145,478 344.58,751 863.98,751 619,478 345,478 345,442 390,442 309,341 		"/>
	</g>
</g>
</svg>
